<mxfile host="app.diagrams.net" modified="2022-06-21T02:19:36.843Z" agent="5.0 (Windows NT 10.0; Win64; x64) AppleWebKit/537.36 (KHTML, like Gecko) Chrome/102.0.0.0 Safari/537.36" etag="-wJgP-d1x7kW1WbncExU" version="20.0.1" type="github">
  <diagram id="kgpKYQtTHZ0yAKxKKP6v" name="Page-1">
    <mxGraphModel dx="979" dy="513" grid="1" gridSize="10" guides="1" tooltips="1" connect="1" arrows="1" fold="1" page="1" pageScale="1" pageWidth="850" pageHeight="1100" background="#DAD2D8" math="0" shadow="0">
      <root>
        <mxCell id="0" />
        <mxCell id="1" parent="0" />
        <mxCell id="_muVhDr60phgIgJsRJF9-12" value="Sistema para Prestação de Serviço para PETS" style="shape=umlFrame;whiteSpace=wrap;html=1;sketch=0;width=280;height=30;fillColor=#FAE5C7;strokeColor=#0F8B8D;fontColor=#143642;" parent="1" vertex="1">
          <mxGeometry x="10" y="40" width="750" height="350" as="geometry" />
        </mxCell>
        <mxCell id="_muVhDr60phgIgJsRJF9-1" value="" style="shape=umlLifeline;participant=umlActor;perimeter=lifelinePerimeter;whiteSpace=wrap;html=1;container=1;collapsible=0;recursiveResize=0;verticalAlign=top;spacingTop=36;outlineConnect=0;rounded=0;sketch=0;fillColor=#FAE5C7;strokeColor=#0F8B8D;fontColor=#143642;" parent="1" vertex="1">
          <mxGeometry x="60" y="100" width="20" height="280" as="geometry" />
        </mxCell>
        <mxCell id="_muVhDr60phgIgJsRJF9-8" value="" style="html=1;points=[];perimeter=orthogonalPerimeter;sketch=0;fillColor=#FAE5C7;strokeColor=#0F8B8D;fontColor=#143642;" parent="_muVhDr60phgIgJsRJF9-1" vertex="1">
          <mxGeometry x="10" y="100" width="10" height="100" as="geometry" />
        </mxCell>
        <mxCell id="_muVhDr60phgIgJsRJF9-2" value=":formularioEmiteRelatorio" style="shape=umlLifeline;perimeter=lifelinePerimeter;whiteSpace=wrap;html=1;container=1;collapsible=0;recursiveResize=0;outlineConnect=0;rounded=0;sketch=0;fillColor=#FAE5C7;strokeColor=#0F8B8D;fontColor=#143642;" parent="1" vertex="1">
          <mxGeometry x="130" y="100" width="150" height="280" as="geometry" />
        </mxCell>
        <mxCell id="_muVhDr60phgIgJsRJF9-10" value="" style="html=1;points=[];perimeter=orthogonalPerimeter;sketch=0;fillColor=#FAE5C7;strokeColor=#0F8B8D;fontColor=#143642;" parent="_muVhDr60phgIgJsRJF9-2" vertex="1">
          <mxGeometry x="65" y="100" width="10" height="160" as="geometry" />
        </mxCell>
        <mxCell id="6cp8o_F83PpAeZEBxeit-1" value=":controleRelatorio" style="shape=umlLifeline;perimeter=lifelinePerimeter;whiteSpace=wrap;html=1;container=1;collapsible=0;recursiveResize=0;outlineConnect=0;fillColor=#FAE5C7;strokeColor=#0F8B8D;fontColor=#143642;" parent="1" vertex="1">
          <mxGeometry x="300" y="100" width="120" height="280" as="geometry" />
        </mxCell>
        <mxCell id="6cp8o_F83PpAeZEBxeit-9" value="" style="html=1;points=[];perimeter=orthogonalPerimeter;fillColor=#FAE5C7;strokeColor=#0F8B8D;fontColor=#143642;" parent="6cp8o_F83PpAeZEBxeit-1" vertex="1">
          <mxGeometry x="60" y="100" width="10" height="30" as="geometry" />
        </mxCell>
        <mxCell id="6cp8o_F83PpAeZEBxeit-2" value=":Relatorio" style="shape=umlLifeline;perimeter=lifelinePerimeter;whiteSpace=wrap;html=1;container=1;collapsible=0;recursiveResize=0;outlineConnect=0;fillColor=#FAE5C7;strokeColor=#0F8B8D;fontColor=#143642;" parent="1" vertex="1">
          <mxGeometry x="480" y="100" width="100" height="280" as="geometry" />
        </mxCell>
        <mxCell id="UgTUC3kBskvMZxOnvyTt-1" value="" style="html=1;points=[];perimeter=orthogonalPerimeter;fillColor=#FAE5C7;strokeColor=#0F8B8D;fontColor=#143642;" vertex="1" parent="6cp8o_F83PpAeZEBxeit-2">
          <mxGeometry x="50" y="99" width="10" height="30" as="geometry" />
        </mxCell>
        <mxCell id="6cp8o_F83PpAeZEBxeit-3" value=":DAO" style="shape=umlLifeline;perimeter=lifelinePerimeter;whiteSpace=wrap;html=1;container=1;collapsible=0;recursiveResize=0;outlineConnect=0;fillColor=#FAE5C7;strokeColor=#0F8B8D;fontColor=#143642;" parent="1" vertex="1">
          <mxGeometry x="640" y="100" width="100" height="280" as="geometry" />
        </mxCell>
        <mxCell id="UgTUC3kBskvMZxOnvyTt-5" value="" style="html=1;points=[];perimeter=orthogonalPerimeter;rounded=0;sketch=0;fillColor=#FAE5C7;strokeColor=#0F8B8D;fontColor=#143642;" vertex="1" parent="6cp8o_F83PpAeZEBxeit-3">
          <mxGeometry x="50" y="196" width="10" height="50" as="geometry" />
        </mxCell>
        <mxCell id="6cp8o_F83PpAeZEBxeit-10" value="DadosRelatorio()" style="html=1;verticalAlign=bottom;endArrow=block;rounded=0;exitX=0.9;exitY=0.014;exitDx=0;exitDy=0;exitPerimeter=0;entryX=0.6;entryY=0.014;entryDx=0;entryDy=0;entryPerimeter=0;curved=1;labelBackgroundColor=#DAD2D8;strokeColor=#A8201A;fontColor=#143642;" parent="1" source="_muVhDr60phgIgJsRJF9-10" target="6cp8o_F83PpAeZEBxeit-9" edge="1">
          <mxGeometry x="-0.16" y="1" width="80" relative="1" as="geometry">
            <mxPoint x="510" y="250" as="sourcePoint" />
            <mxPoint x="590" y="250" as="targetPoint" />
            <Array as="points" />
            <mxPoint as="offset" />
          </mxGeometry>
        </mxCell>
        <mxCell id="6cp8o_F83PpAeZEBxeit-12" value="DadosRelatorio()" style="html=1;verticalAlign=bottom;endArrow=block;rounded=0;exitX=1;exitY=0;exitDx=0;exitDy=0;exitPerimeter=0;curved=1;labelBackgroundColor=#DAD2D8;strokeColor=#A8201A;fontColor=#143642;" parent="1" source="6cp8o_F83PpAeZEBxeit-9" target="UgTUC3kBskvMZxOnvyTt-1" edge="1">
          <mxGeometry x="-0.125" width="80" relative="1" as="geometry">
            <mxPoint x="510" y="250" as="sourcePoint" />
            <mxPoint x="470" y="200" as="targetPoint" />
            <mxPoint x="-1" as="offset" />
          </mxGeometry>
        </mxCell>
        <mxCell id="6cp8o_F83PpAeZEBxeit-16" value="DadosRelatorio()" style="html=1;verticalAlign=bottom;endArrow=block;rounded=0;exitX=1.022;exitY=0.003;exitDx=0;exitDy=0;exitPerimeter=0;entryX=-0.011;entryY=0.003;entryDx=0;entryDy=0;entryPerimeter=0;curved=1;labelBackgroundColor=#DAD2D8;strokeColor=#A8201A;fontColor=#143642;" parent="1" source="_muVhDr60phgIgJsRJF9-8" target="_muVhDr60phgIgJsRJF9-10" edge="1">
          <mxGeometry width="80" relative="1" as="geometry">
            <mxPoint x="170" y="180" as="sourcePoint" />
            <mxPoint x="250" y="180" as="targetPoint" />
          </mxGeometry>
        </mxCell>
        <mxCell id="6cp8o_F83PpAeZEBxeit-15" value="Operação" style="text;align=center;fontStyle=1;verticalAlign=middle;spacingLeft=3;spacingRight=3;strokeColor=none;rotatable=0;points=[[0,0.5],[1,0.5]];portConstraint=eastwest;fontColor=#143642;" parent="1" vertex="1">
          <mxGeometry x="30" y="74" width="80" height="26" as="geometry" />
        </mxCell>
        <mxCell id="UgTUC3kBskvMZxOnvyTt-4" value="DadosRelatorio()" style="html=1;verticalAlign=bottom;endArrow=block;rounded=1;sketch=0;curved=1;exitX=0.982;exitY=0.744;exitDx=0;exitDy=0;exitPerimeter=0;entryX=-0.048;entryY=0.008;entryDx=0;entryDy=0;entryPerimeter=0;labelBackgroundColor=#DAD2D8;strokeColor=#A8201A;fontColor=#143642;" edge="1" parent="1">
          <mxGeometry width="80" relative="1" as="geometry">
            <mxPoint x="79.82000000000005" y="297.52" as="sourcePoint" />
            <mxPoint x="689.52" y="298.4" as="targetPoint" />
          </mxGeometry>
        </mxCell>
        <mxCell id="UgTUC3kBskvMZxOnvyTt-6" value="return" style="html=1;verticalAlign=bottom;endArrow=open;dashed=1;endSize=8;rounded=1;sketch=0;curved=1;exitX=0;exitY=1.027;exitDx=0;exitDy=0;exitPerimeter=0;labelBackgroundColor=#DAD2D8;strokeColor=#A8201A;fontColor=#143642;" edge="1" parent="1" source="UgTUC3kBskvMZxOnvyTt-5" target="_muVhDr60phgIgJsRJF9-2">
          <mxGeometry relative="1" as="geometry">
            <mxPoint x="650" y="310" as="sourcePoint" />
            <mxPoint x="570" y="310" as="targetPoint" />
          </mxGeometry>
        </mxCell>
        <mxCell id="UgTUC3kBskvMZxOnvyTt-8" value="GerarRelatorio()" style="html=1;verticalAlign=bottom;endArrow=block;rounded=1;sketch=0;curved=1;exitX=0.937;exitY=0.031;exitDx=0;exitDy=0;exitPerimeter=0;entryX=-0.026;entryY=-0.005;entryDx=0;entryDy=0;entryPerimeter=0;labelBackgroundColor=#DAD2D8;strokeColor=#A8201A;fontColor=#143642;" edge="1" parent="1" source="UgTUC3kBskvMZxOnvyTt-1" target="UgTUC3kBskvMZxOnvyTt-9">
          <mxGeometry width="80" relative="1" as="geometry">
            <mxPoint x="570" y="200" as="sourcePoint" />
            <mxPoint x="650" y="200" as="targetPoint" />
          </mxGeometry>
        </mxCell>
        <mxCell id="UgTUC3kBskvMZxOnvyTt-9" value="" style="html=1;points=[];perimeter=orthogonalPerimeter;rounded=0;sketch=0;fillColor=#FAE5C7;strokeColor=#0F8B8D;fontColor=#143642;" vertex="1" parent="1">
          <mxGeometry x="690" y="200" width="10" height="60" as="geometry" />
        </mxCell>
        <mxCell id="UgTUC3kBskvMZxOnvyTt-11" value="RelatorioGerado()" style="html=1;verticalAlign=bottom;endArrow=open;dashed=1;endSize=8;rounded=1;sketch=0;curved=1;exitX=-0.013;exitY=1.004;exitDx=0;exitDy=0;exitPerimeter=0;labelBackgroundColor=#DAD2D8;strokeColor=#A8201A;fontColor=#143642;" edge="1" parent="1" source="UgTUC3kBskvMZxOnvyTt-9" target="_muVhDr60phgIgJsRJF9-2">
          <mxGeometry relative="1" as="geometry">
            <mxPoint x="650" y="260" as="sourcePoint" />
            <mxPoint x="570" y="260" as="targetPoint" />
          </mxGeometry>
        </mxCell>
      </root>
    </mxGraphModel>
  </diagram>
</mxfile>
